<mxfile host="app.diagrams.net" modified="2024-04-07T07:19:28.513Z" agent="Mozilla/5.0 (Windows NT 10.0; Win64; x64) AppleWebKit/537.36 (KHTML, like Gecko) Chrome/123.0.0.0 Safari/537.36" etag="-sxAwGFO6048e0mwcjLu" version="24.2.2" type="github">
  <diagram name="Page-1" id="XDxHaK04zkPo1HLaw9E5">
    <mxGraphModel dx="1646" dy="806" grid="1" gridSize="10" guides="1" tooltips="1" connect="1" arrows="1" fold="1" page="1" pageScale="1" pageWidth="827" pageHeight="1169" math="0" shadow="0">
      <root>
        <mxCell id="0" />
        <mxCell id="1" parent="0" />
        <mxCell id="nBS9fJ__BQ_B1VIMYPT3-357" value="Clone Repository" style="whiteSpace=wrap;strokeWidth=2;labelBackgroundColor=none;fillColor=#09555B;strokeColor=#BAC8D3;fontColor=#EEEEEE;" vertex="1" parent="1">
          <mxGeometry x="378" y="190" width="136" height="34" as="geometry" />
        </mxCell>
        <mxCell id="nBS9fJ__BQ_B1VIMYPT3-358" value="Branch Created?" style="rhombus;strokeWidth=2;whiteSpace=wrap;labelBackgroundColor=none;fillColor=#09555B;strokeColor=#BAC8D3;fontColor=#EEEEEE;" vertex="1" parent="1">
          <mxGeometry x="364" y="274" width="166" height="166" as="geometry" />
        </mxCell>
        <mxCell id="nBS9fJ__BQ_B1VIMYPT3-359" value="Work on Code" style="rounded=1;absoluteArcSize=1;arcSize=14;whiteSpace=wrap;strokeWidth=2;labelBackgroundColor=none;fillColor=#09555B;strokeColor=#BAC8D3;fontColor=#EEEEEE;" vertex="1" parent="1">
          <mxGeometry x="389" y="509" width="115" height="34" as="geometry" />
        </mxCell>
        <mxCell id="nBS9fJ__BQ_B1VIMYPT3-360" value="Commit Changes" style="rounded=1;absoluteArcSize=1;arcSize=14;whiteSpace=wrap;strokeWidth=2;labelBackgroundColor=none;fillColor=#09555B;strokeColor=#BAC8D3;fontColor=#EEEEEE;" vertex="1" parent="1">
          <mxGeometry x="289" y="593" width="135" height="34" as="geometry" />
        </mxCell>
        <mxCell id="nBS9fJ__BQ_B1VIMYPT3-361" value="Push Branch" style="rounded=1;absoluteArcSize=1;arcSize=14;whiteSpace=wrap;strokeWidth=2;labelBackgroundColor=none;fillColor=#09555B;strokeColor=#BAC8D3;fontColor=#EEEEEE;" vertex="1" parent="1">
          <mxGeometry x="306" y="677" width="102" height="34" as="geometry" />
        </mxCell>
        <mxCell id="nBS9fJ__BQ_B1VIMYPT3-362" value="Pull Request Created?" style="rhombus;strokeWidth=2;whiteSpace=wrap;labelBackgroundColor=none;fillColor=#09555B;strokeColor=#BAC8D3;fontColor=#EEEEEE;" vertex="1" parent="1">
          <mxGeometry x="254" y="780" width="205" height="205" as="geometry" />
        </mxCell>
        <mxCell id="nBS9fJ__BQ_B1VIMYPT3-363" value="Request Review" style="rounded=1;absoluteArcSize=1;arcSize=14;whiteSpace=wrap;strokeWidth=2;labelBackgroundColor=none;fillColor=#09555B;strokeColor=#BAC8D3;fontColor=#EEEEEE;" vertex="1" parent="1">
          <mxGeometry x="293" y="1054" width="128" height="34" as="geometry" />
        </mxCell>
        <mxCell id="nBS9fJ__BQ_B1VIMYPT3-364" value="Changes Required?" style="rhombus;strokeWidth=2;whiteSpace=wrap;labelBackgroundColor=none;fillColor=#09555B;strokeColor=#BAC8D3;fontColor=#EEEEEE;" vertex="1" parent="1">
          <mxGeometry x="313" y="1138" width="182" height="182" as="geometry" />
        </mxCell>
        <mxCell id="nBS9fJ__BQ_B1VIMYPT3-365" value="Merge Request" style="rounded=1;absoluteArcSize=1;arcSize=14;whiteSpace=wrap;strokeWidth=2;labelBackgroundColor=none;fillColor=#09555B;strokeColor=#BAC8D3;fontColor=#EEEEEE;" vertex="1" parent="1">
          <mxGeometry x="344" y="1389" width="121" height="34" as="geometry" />
        </mxCell>
        <mxCell id="nBS9fJ__BQ_B1VIMYPT3-366" value="More Changes?" style="rhombus;strokeWidth=2;whiteSpace=wrap;labelBackgroundColor=none;fillColor=#09555B;strokeColor=#BAC8D3;fontColor=#EEEEEE;" vertex="1" parent="1">
          <mxGeometry x="348" y="1473" width="154" height="154" as="geometry" />
        </mxCell>
        <mxCell id="nBS9fJ__BQ_B1VIMYPT3-367" value="Finish" style="rounded=1;absoluteArcSize=1;arcSize=14;whiteSpace=wrap;strokeWidth=2;labelBackgroundColor=none;fillColor=#09555B;strokeColor=#BAC8D3;fontColor=#EEEEEE;" vertex="1" parent="1">
          <mxGeometry x="397" y="1696" width="57" height="34" as="geometry" />
        </mxCell>
        <mxCell id="nBS9fJ__BQ_B1VIMYPT3-368" value="" style="curved=1;startArrow=none;endArrow=block;exitX=0.5038918887867647;exitY=1;entryX=0.4971644390060241;entryY=0;rounded=0;labelBackgroundColor=none;strokeColor=#0B4D6A;fontColor=default;flowAnimation=1;" edge="1" parent="1" source="nBS9fJ__BQ_B1VIMYPT3-357" target="nBS9fJ__BQ_B1VIMYPT3-358">
          <mxGeometry relative="1" as="geometry">
            <Array as="points" />
          </mxGeometry>
        </mxCell>
        <mxCell id="nBS9fJ__BQ_B1VIMYPT3-369" value="Yes" style="curved=1;startArrow=none;endArrow=block;exitX=0.4971644390060241;exitY=0.9988704819277109;entryX=0.5002547554347826;entryY=-0.0055147058823529415;rounded=0;labelBackgroundColor=none;strokeColor=#0B4D6A;fontColor=default;flowAnimation=1;" edge="1" parent="1" source="nBS9fJ__BQ_B1VIMYPT3-358" target="nBS9fJ__BQ_B1VIMYPT3-359">
          <mxGeometry relative="1" as="geometry">
            <Array as="points" />
          </mxGeometry>
        </mxCell>
        <mxCell id="nBS9fJ__BQ_B1VIMYPT3-370" value="No" style="curved=1;startArrow=none;endArrow=block;exitX=0.9965996799698795;exitY=0.1318472087982028;entryX=0.9965996799698795;entryY=0.867023273129508;rounded=0;labelBackgroundColor=none;strokeColor=#0B4D6A;fontColor=default;flowAnimation=1;" edge="1" parent="1" source="nBS9fJ__BQ_B1VIMYPT3-358" target="nBS9fJ__BQ_B1VIMYPT3-358">
          <mxGeometry relative="1" as="geometry">
            <Array as="points">
              <mxPoint x="559" y="274" />
              <mxPoint x="567" y="274" />
              <mxPoint x="574" y="357" />
              <mxPoint x="567" y="440" />
              <mxPoint x="559" y="440" />
            </Array>
          </mxGeometry>
        </mxCell>
        <mxCell id="nBS9fJ__BQ_B1VIMYPT3-371" value="" style="curved=1;startArrow=none;endArrow=block;exitX=0.18380766369047616;exitY=0.9944852941176471;entryX=0.5008969907407408;entryY=-0.0055147058823529415;rounded=0;labelBackgroundColor=none;strokeColor=#0B4D6A;fontColor=default;flowAnimation=1;" edge="1" parent="1" source="nBS9fJ__BQ_B1VIMYPT3-359" target="nBS9fJ__BQ_B1VIMYPT3-360">
          <mxGeometry relative="1" as="geometry">
            <Array as="points">
              <mxPoint x="357" y="568" />
            </Array>
          </mxGeometry>
        </mxCell>
        <mxCell id="nBS9fJ__BQ_B1VIMYPT3-372" value="" style="curved=1;startArrow=none;endArrow=block;exitX=0.5008969907407408;exitY=0.9944852941176471;entryX=0.49628523284313725;entryY=-0.0055147058823529415;rounded=0;labelBackgroundColor=none;strokeColor=#0B4D6A;fontColor=default;flowAnimation=1;" edge="1" parent="1" source="nBS9fJ__BQ_B1VIMYPT3-360" target="nBS9fJ__BQ_B1VIMYPT3-361">
          <mxGeometry relative="1" as="geometry">
            <Array as="points" />
          </mxGeometry>
        </mxCell>
        <mxCell id="nBS9fJ__BQ_B1VIMYPT3-373" value="" style="curved=1;startArrow=none;endArrow=block;exitX=0.448379943603655;exitY=0.9944852941176471;entryX=0.44655006474196496;entryY=-0.0009146341463414635;rounded=0;labelBackgroundColor=none;strokeColor=#0B4D6A;fontColor=default;flowAnimation=1;" edge="1" parent="1" source="nBS9fJ__BQ_B1VIMYPT3-361" target="nBS9fJ__BQ_B1VIMYPT3-362">
          <mxGeometry relative="1" as="geometry">
            <Array as="points">
              <mxPoint x="342" y="745" />
            </Array>
          </mxGeometry>
        </mxCell>
        <mxCell id="nBS9fJ__BQ_B1VIMYPT3-374" value="Yes" style="curved=1;startArrow=none;endArrow=block;exitX=0.5005907012195122;exitY=1.000266768292683;entryX=0.497039794921875;entryY=0.001608455882352941;rounded=0;labelBackgroundColor=none;strokeColor=#0B4D6A;fontColor=default;flowAnimation=1;" edge="1" parent="1" source="nBS9fJ__BQ_B1VIMYPT3-362" target="nBS9fJ__BQ_B1VIMYPT3-363">
          <mxGeometry relative="1" as="geometry">
            <Array as="points" />
          </mxGeometry>
        </mxCell>
        <mxCell id="nBS9fJ__BQ_B1VIMYPT3-375" value="No" style="curved=1;startArrow=none;endArrow=block;exitX=0.6756969092437377;exitY=-0.0009146341463414635;entryX=0.6515112643965353;entryY=0.9944852941176471;rounded=0;labelBackgroundColor=none;strokeColor=#0B4D6A;fontColor=default;flowAnimation=1;" edge="1" parent="1" source="nBS9fJ__BQ_B1VIMYPT3-362" target="nBS9fJ__BQ_B1VIMYPT3-361">
          <mxGeometry relative="1" as="geometry">
            <Array as="points">
              <mxPoint x="405" y="745" />
            </Array>
          </mxGeometry>
        </mxCell>
        <mxCell id="nBS9fJ__BQ_B1VIMYPT3-376" value="" style="curved=1;startArrow=none;endArrow=block;exitX=0.497039794921875;exitY=1.001608455882353;entryX=0.29617987313315597;entryY=0.00030048076923076925;rounded=0;labelBackgroundColor=none;strokeColor=#0B4D6A;fontColor=default;flowAnimation=1;" edge="1" parent="1" source="nBS9fJ__BQ_B1VIMYPT3-363" target="nBS9fJ__BQ_B1VIMYPT3-364">
          <mxGeometry relative="1" as="geometry">
            <Array as="points">
              <mxPoint x="357" y="1113" />
            </Array>
          </mxGeometry>
        </mxCell>
        <mxCell id="nBS9fJ__BQ_B1VIMYPT3-377" value="No" style="curved=1;startArrow=none;endArrow=block;exitX=0.5018350789835165;exitY=1.000214629120879;entryX=0.4986279700413223;entryY=0.0011488970588235295;rounded=0;labelBackgroundColor=none;strokeColor=#0B4D6A;fontColor=default;flowAnimation=1;" edge="1" parent="1" source="nBS9fJ__BQ_B1VIMYPT3-364" target="nBS9fJ__BQ_B1VIMYPT3-365">
          <mxGeometry relative="1" as="geometry">
            <Array as="points" />
          </mxGeometry>
        </mxCell>
        <mxCell id="nBS9fJ__BQ_B1VIMYPT3-378" value="Yes" style="curved=1;startArrow=none;endArrow=block;exitX=0.8893632664209739;exitY=0.00030048076923076925;entryX=0.6681883249223601;entryY=0.9944852941176471;rounded=0;labelBackgroundColor=none;strokeColor=#0B4D6A;fontColor=default;flowAnimation=1;" edge="1" parent="1" source="nBS9fJ__BQ_B1VIMYPT3-364" target="nBS9fJ__BQ_B1VIMYPT3-359">
          <mxGeometry relative="1" as="geometry">
            <Array as="points">
              <mxPoint x="494" y="1113" />
              <mxPoint x="494" y="568" />
            </Array>
          </mxGeometry>
        </mxCell>
        <mxCell id="nBS9fJ__BQ_B1VIMYPT3-379" value="" style="curved=1;startArrow=none;endArrow=block;exitX=0.4986279700413223;exitY=1.0011488970588236;entryX=0.3993175236574118;entryY=0.0002536525974025974;rounded=0;labelBackgroundColor=none;strokeColor=#0B4D6A;fontColor=default;flowAnimation=1;" edge="1" parent="1" source="nBS9fJ__BQ_B1VIMYPT3-365" target="nBS9fJ__BQ_B1VIMYPT3-366">
          <mxGeometry relative="1" as="geometry">
            <Array as="points">
              <mxPoint x="404" y="1448" />
            </Array>
          </mxGeometry>
        </mxCell>
        <mxCell id="nBS9fJ__BQ_B1VIMYPT3-380" value="Yes" style="curved=1;startArrow=none;endArrow=block;exitX=1.004096489448052;exitY=0.15503424379426622;entryX=0.9463796422101448;entryY=0.9944852941176471;rounded=0;labelBackgroundColor=none;strokeColor=#0B4D6A;fontColor=default;flowAnimation=1;" edge="1" parent="1" source="nBS9fJ__BQ_B1VIMYPT3-366" target="nBS9fJ__BQ_B1VIMYPT3-359">
          <mxGeometry relative="1" as="geometry">
            <Array as="points">
              <mxPoint x="573" y="1448" />
              <mxPoint x="573" y="568" />
            </Array>
          </mxGeometry>
        </mxCell>
        <mxCell id="nBS9fJ__BQ_B1VIMYPT3-381" value="No" style="curved=1;startArrow=none;endArrow=block;exitX=0.5028028612012987;exitY=1.0028409090909092;entryX=0.49880071271929827;entryY=0.012867647058823529;rounded=0;labelBackgroundColor=none;strokeColor=#0B4D6A;fontColor=default;flowAnimation=1;" edge="1" parent="1" source="nBS9fJ__BQ_B1VIMYPT3-366" target="nBS9fJ__BQ_B1VIMYPT3-367">
          <mxGeometry relative="1" as="geometry">
            <Array as="points" />
          </mxGeometry>
        </mxCell>
      </root>
    </mxGraphModel>
  </diagram>
</mxfile>
